# xmcd CD database file
#
# Track frame offsets:
#	150
#	21450
#	39394
#	59303
#	71243
#	105992
#	135363
#	157871
#	176989
#
# Disc length: 2610 seconds
#
# Revision: 0
# Processed by: cddbd v1.5.2PL0 Copyright (c) Steve Scherf et al.
# Submitted via: CDex 1.70beta2
#
DISCID=740a3009
DTITLE=Andrzej Przybielski - Abstract
DYEAR=2003
DGENRE=Jazz
TTITLE0=Openscat
TTITLE1=Ride
TTITLE2=Afroblue
TTITLE3=Skok
TTITLE4=Ballada
TTITLE5=Epitafium for Jacek
TTITLE6=Cherry
TTITLE7=Afroblue II
TTITLE8=Final
EXTD=YEAR: 2003
EXTT0=
EXTT1=
EXTT2=
EXTT3=
EXTT4=
EXTT5=
EXTT6=
EXTT7=
EXTT8=
PLAYORDER=
